<svg width="31" height="30" viewBox="0 0 31 30" fill="none" xmlns="http://www.w3.org/2000/svg">
<path d="M9.25 27.5C8.5625 27.5 7.97375 27.255 7.48375 26.765C6.99375 26.275 6.74917 25.6867 6.75 25C6.75 24.3125 6.995 23.7237 7.485 23.2337C7.975 22.7437 8.56333 22.4992 9.25 22.5C9.9375 22.5 10.5263 22.745 11.0163 23.235C11.5063 23.725 11.7508 24.3133 11.75 25C11.75 25.6875 11.505 26.2763 11.015 26.7663C10.525 27.2563 9.93667 27.5008 9.25 27.5ZM21.75 27.5C21.0625 27.5 20.4738 27.255 19.9838 26.765C19.4938 26.275 19.2492 25.6867 19.25 25C19.25 24.3125 19.495 23.7237 19.985 23.2337C20.475 22.7437 21.0633 22.4992 21.75 22.5C22.4375 22.5 23.0263 22.745 23.5163 23.235C24.0063 23.725 24.2508 24.3133 24.25 25C24.25 25.6875 24.005 26.2763 23.515 26.7663C23.025 27.2563 22.4367 27.5008 21.75 27.5ZM8.1875 7.5L11.1875 13.75H19.9375L23.375 7.5H8.1875ZM7 5H25.4375C25.9167 5 26.2813 5.21375 26.5313 5.64125C26.7813 6.06875 26.7917 6.50083 26.5625 6.9375L22.125 14.9375C21.8958 15.3542 21.5883 15.6771 21.2025 15.9062C20.8167 16.1354 20.395 16.25 19.9375 16.25H10.625L9.25 18.75H24.25V21.25H9.25C8.3125 21.25 7.60417 20.8383 7.125 20.015C6.64583 19.1917 6.625 18.3742 7.0625 17.5625L8.75 14.5L4.25 5H1.75V2.5H5.8125L7 5Z" fill="#DBDBD8"/>
</svg>
