<svg width="20" height="20" viewBox="0 0 20 20" fill="none" xmlns="http://www.w3.org/2000/svg">
<path d="M10 6.4697C9.06233 6.4697 8.16303 6.84158 7.49997 7.50353C6.83692 8.16548 6.46442 9.06328 6.46442 9.99942C6.46442 10.9356 6.83692 11.8334 7.49997 12.4953C8.16303 13.1573 9.06233 13.5291 10 13.5291C10.9377 13.5291 11.837 13.1573 12.5001 12.4953C13.1631 11.8334 13.5356 10.9356 13.5356 9.99942C13.5356 9.06328 13.1631 8.16548 12.5001 7.50353C11.837 6.84158 10.9377 6.4697 10 6.4697Z" fill="#67656A"/>
<path fill-rule="evenodd" clip-rule="evenodd" d="M4.31041 0.313846C8.09191 -0.104615 11.9081 -0.104615 15.6896 0.313846C17.7555 0.544093 19.4211 2.16777 19.6637 4.23781C20.1121 8.06583 20.1121 11.933 19.6637 15.761C19.4211 17.8311 17.7555 19.4547 15.6907 19.6861C11.9089 20.1046 8.09226 20.1046 4.31041 19.6861C2.24452 19.4547 0.578975 17.8311 0.336377 15.7621C-0.112126 11.9337 -0.112126 8.06619 0.336377 4.23781C0.578975 2.16777 2.24452 0.544093 4.31041 0.313846ZM15.4394 3.483C15.1509 3.483 14.8742 3.59742 14.6702 3.8011C14.4662 4.00478 14.3515 4.28102 14.3515 4.56907C14.3515 4.85711 14.4662 5.13336 14.6702 5.33703C14.8742 5.54071 15.1509 5.65514 15.4394 5.65514C15.728 5.65514 16.0047 5.54071 16.2087 5.33703C16.4127 5.13336 16.5273 4.85711 16.5273 4.56907C16.5273 4.28102 16.4127 4.00478 16.2087 3.8011C16.0047 3.59742 15.728 3.483 15.4394 3.483ZM4.83259 9.99941C4.83259 8.63121 5.37701 7.31904 6.3461 6.35157C7.31518 5.3841 8.62954 4.84058 10 4.84058C11.3705 4.84058 12.6849 5.3841 13.654 6.35157C14.623 7.31904 15.1675 8.63121 15.1675 9.99941C15.1675 11.3676 14.623 12.6798 13.654 13.6473C12.6849 14.6147 11.3705 15.1582 10 15.1582C8.62954 15.1582 7.31518 14.6147 6.3461 13.6473C5.37701 12.6798 4.83259 11.3676 4.83259 9.99941Z" fill="#67656A"/>
</svg>
