<svg width="20" height="20" viewBox="0 0 20 20" fill="none" xmlns="http://www.w3.org/2000/svg">
<path d="M20 2.35294C19.2639 2.76471 18.4704 3.03529 17.6482 3.16471C18.4895 2.54118 19.1396 1.55294 19.4455 0.364706C18.652 0.952941 17.7725 1.36471 16.8451 1.6C16.0899 0.588235 15.0287 0 13.8241 0C11.5774 0 9.74187 2.25882 9.74187 5.04706C9.74187 5.44706 9.78012 5.83529 9.84704 6.2C6.4436 5.98824 3.413 3.97647 1.39579 0.929412C1.04207 1.67059 0.8413 2.54118 0.8413 3.45882C0.8413 5.21176 1.55832 6.76471 2.6673 7.64706C1.98853 7.64706 1.35755 7.41177 0.80306 7.05882V7.09412C0.80306 9.54118 2.21797 11.5882 4.09178 12.0471C3.49018 12.2497 2.8586 12.2778 2.24665 12.1294C2.50632 13.1323 3.01485 14.0099 3.70078 14.6387C4.38671 15.2676 5.21553 15.6161 6.07075 15.6353C4.62106 17.0476 2.82409 17.811 0.975143 17.8C0.650096 17.8 0.325048 17.7765 0 17.7294C1.81644 19.1647 3.97706 20 6.29063 20C13.8241 20 17.9637 12.3059 17.9637 5.63529C17.9637 5.41177 17.9637 5.2 17.9541 4.97647C18.7572 4.27059 19.4455 3.37647 20 2.35294Z" fill="#67656A"/>
</svg>
