<svg width="28" height="28" viewBox="0 0 28 28" fill="none" xmlns="http://www.w3.org/2000/svg">
<g clip-path="url(#clip0_6_53)">
<path d="M13.9906 14.7736C14.7884 14.7736 15.5783 14.6164 16.3154 14.3111C17.0525 14.0058 17.7222 13.5583 18.2863 12.9942C18.8504 12.4301 19.2979 11.7604 19.6032 11.0234C19.9085 10.2863 20.0656 9.49633 20.0656 8.69855C20.0656 7.90077 19.9085 7.1108 19.6032 6.37375C19.2979 5.6367 18.8504 4.96699 18.2863 4.40288C17.7222 3.83876 17.0525 3.39128 16.3154 3.08598C15.5783 2.78069 14.7884 2.62355 13.9906 2.62355C12.3794 2.62355 10.8342 3.26359 9.69493 4.40288C8.55564 5.54216 7.9156 7.08736 7.9156 8.69855C7.9156 10.3097 8.55564 11.8549 9.69493 12.9942C10.8342 14.1335 12.3794 14.7736 13.9906 14.7736ZM14.0001 0.5C15.7783 0.499421 17.5073 1.08402 18.9203 2.1636C20.3333 3.24318 21.3518 4.75774 21.8186 6.4736C22.2854 8.18946 22.1746 10.0113 21.5033 11.6579C20.832 13.3045 19.6375 14.6845 18.104 15.5849C23.0829 17.0834 26.8224 21.2792 27.4933 26.4902C27.5568 26.9857 27.1882 27.4352 26.6698 27.496C26.1528 27.5567 25.6803 27.2057 25.6168 26.7103C24.8878 21.0538 19.9887 16.7945 14.0473 16.7945C8.07355 16.7945 3.11095 21.0619 2.3833 26.7103C2.31985 27.2057 1.84735 27.5567 1.3303 27.496C0.8119 27.4352 0.44335 26.9857 0.5068 26.4902C1.1764 21.3008 4.93615 17.1104 9.92305 15.5984C8.38498 14.7021 7.18501 13.3241 6.50868 11.6774C5.83235 10.0307 5.71734 8.20702 6.18141 6.4884C6.64549 4.76977 7.66281 3.2519 9.07609 2.16945C10.4894 1.087 12.2199 0.500283 14.0001 0.5Z" fill="#DBDBD8"/>
</g>
<defs>
<clipPath id="clip0_6_53">
<rect width="27" height="27" fill="white" transform="translate(0.5 0.5)"/>
</clipPath>
</defs>
</svg>
